HIERARCHY
ROOT Hips
{
	OFFSET 0.000000 0.000000 0.000000
	CHANNELS 6 Xposition Yposition Zposition Xrotation Yrotation Zrotation
	JOINT LeftUpLeg_virtual
	{
		OFFSET 0.000000 0.000000 0.000000
		CHANNELS 3 Xrotation Yrotation Zrotation
		JOINT LeftUpLeg
		{
			OFFSET 13.026900 -6.336304 -1.092800
			CHANNELS 3 Xrotation Yrotation Zrotation
			JOINT LeftLeg
			{
				OFFSET 0.524474 -46.096886 9.782700
				CHANNELS 3 Xrotation Yrotation Zrotation
				JOINT LeftFoot
				{
					OFFSET -0.524474 -53.427422 -12.948200
					CHANNELS 3 Xrotation Yrotation Zrotation
					JOINT LeftToeBase
					{
						OFFSET 0.192200 -14.009700 16.364100
						CHANNELS 3 Xrotation Yrotation Zrotation
						JOINT LeftToe_End
						{
							OFFSET -1.784700 -0.561700 9.474800
							CHANNELS 3 Xrotation Yrotation Zrotation
							End Site
							{
								OFFSET 0 0 0
							}
						}
					}
				}
			}
		}
	}
	JOINT RightUpLeg_virtual
	{
		OFFSET 0.000000 0.000000 0.000000
		CHANNELS 3 Xrotation Yrotation Zrotation
		JOINT RightUpLeg
		{
			OFFSET -12.883000 -6.336304 -1.092800
			CHANNELS 3 Xrotation Yrotation Zrotation
			JOINT RightLeg
			{
				OFFSET -0.524587 -46.096825 9.782800
				CHANNELS 3 Xrotation Yrotation Zrotation
				JOINT RightFoot
				{
					OFFSET 0.524587 -53.427383 -12.948300
					CHANNELS 3 Xrotation Yrotation Zrotation
					JOINT RightToeBase
					{
						OFFSET -0.192200 -14.009700 16.364100
						CHANNELS 3 Xrotation Yrotation Zrotation
						JOINT RightToe_End
						{
							OFFSET 1.784700 -0.561700 9.474800
							CHANNELS 3 Xrotation Yrotation Zrotation
							End Site
							{
								OFFSET 0 0 0
							}
						}
					}
				}
			}
		}
	}
	JOINT Spine_virtual
	{
		OFFSET 0.000000 0.000000 0.000000
		CHANNELS 3 Xrotation Yrotation Zrotation
		JOINT Spine
		{
			OFFSET 0.072000 7.257294 -0.789700
			CHANNELS 3 Xrotation Yrotation Zrotation
			JOINT Spine1
			{
				OFFSET 0.000000 12.508769 -0.658067
				CHANNELS 3 Xrotation Yrotation Zrotation
				JOINT Spine1_split
				{
					OFFSET 0.000000 12.508769 -0.658067
					CHANNELS 3 Xrotation Yrotation Zrotation
					JOINT Spine2
					{
						OFFSET 0.000000 12.508769 -0.658067
						CHANNELS 3 Xrotation Yrotation Zrotation
						JOINT Neck_virtual
						{
							OFFSET 0.000000 0.000000 0.000000
							CHANNELS 3 Xrotation Yrotation Zrotation
							JOINT Neck
							{
								OFFSET 0.000000 14.033295 7.520400
								CHANNELS 3 Xrotation Yrotation Zrotation
								JOINT Head
								{
									OFFSET 0.000000 8.198502 5.703100
									CHANNELS 3 Xrotation Yrotation Zrotation
									JOINT HeadTop_End
									{
										OFFSET 0.000000 17.760803 13.332701
										CHANNELS 3 Xrotation Yrotation Zrotation
										End Site
										{
											OFFSET 0 0 0
										}
									}
								}
							}
						}
						JOINT LeftShoulder_virtual
						{
							OFFSET 0.000000 0.000000 0.000000
							CHANNELS 3 Xrotation Yrotation Zrotation
							JOINT LeftShoulder
							{
								OFFSET 6.292450 5.785301 -0.669000
								CHANNELS 3 Xrotation Yrotation Zrotation
								JOINT LeftShoulder_split
								{
									OFFSET 6.292450 5.785301 -0.669000
									CHANNELS 3 Xrotation Yrotation Zrotation
									JOINT LeftArm
									{
										OFFSET 13.907140 -6.093903 1.965100
										CHANNELS 3 Xrotation Yrotation Zrotation
										JOINT LeftForeArm
										{
											OFFSET 34.140198 0.000000 0.000000
											CHANNELS 3 Xrotation Yrotation Zrotation
											JOINT LeftHand
											{
												OFFSET 40.960209 0.000000 0.000000
												CHANNELS 3 Xrotation Yrotation Zrotation
												End Site
												{
													OFFSET 0 0 0
												}
											}
										}
									}
								}
							}
						}
						JOINT RightShoulder_virtual
						{
							OFFSET 0.000000 0.000000 0.000000
							CHANNELS 3 Xrotation Yrotation Zrotation
							JOINT RightShoulder
							{
								OFFSET -6.292450 5.785301 -0.669000
								CHANNELS 3 Xrotation Yrotation Zrotation
								JOINT RightShoulder_split
								{
									OFFSET -6.292450 5.785301 -0.669000
									CHANNELS 3 Xrotation Yrotation Zrotation
									JOINT RightArm
									{
										OFFSET -13.907140 -6.093903 1.965100
										CHANNELS 3 Xrotation Yrotation Zrotation
										JOINT RightForeArm
										{
											OFFSET -34.140198 0.000000 0.000000
											CHANNELS 3 Xrotation Yrotation Zrotation
											JOINT RightHand
											{
												OFFSET -40.960209 0.000000 0.000000
												CHANNELS 3 Xrotation Yrotation Zrotation
												End Site
												{
													OFFSET 0 0 0
												}
											}
										}
									}
								}
							}
						}
					}
				}
			}
		}
	}
}
MOTION
Frames: 7
Frame Time: 0.03333333
74.236435 114.696877 186.318405 0.000000 0.000000 0.000000 -6.123883 36.842860 9.907505 -21.299783 11.065638 -14.133818 30.597178 -7.747621 2.470306 19.006443 1.421888 14.959221 -20.691713 0.761379 3.421499 0.000000 0.000000 0.000000 -6.041232 39.266133 9.948518 -9.759043 14.995711 0.916030 48.071438 -7.715064 -2.484374 14.342041 -5.681245 -5.187296 -38.150011 -0.286780 7.885778 0.000000 0.000000 0.000000 -5.941214 38.143178 9.921383 3.507566 -1.434626 -6.700229 -1.751856 -1.227316 1.023443 0.843081 0.699411 0.142348 0.000000 0.000000 0.000000 -1.849330 -1.118027 1.143780 -9.097721 3.305504 2.211445 5.615183 6.091118 -2.619414 0.000000 0.000000 0.000000 -2.077954 -0.784769 1.223643 0.877051 8.484857 -3.548145 0.484320 3.315127 -1.259894 6.424401 -9.123625 -68.188838 11.968219 -24.943704 4.502619 0.000000 0.000000 0.000000 -1.578815 -1.009537 1.337554 0.515001 1.689094 3.470770 1.406237 1.140502 -2.769082 -0.707382 7.680258 78.101157 11.732451 15.226846 -3.043889 0.000000 0.000000 0.000000 
77.050781 116.043930 189.170303 0.000000 0.000000 0.000000 -5.298248 38.062042 8.250387 -17.094717 9.217836 -13.212277 28.081380 -8.335638 2.708560 14.984559 3.024530 15.637622 -20.422083 1.234232 2.092231 0.000000 0.000000 0.000000 -5.060206 40.051874 8.145641 -18.044982 15.130720 1.590254 43.905880 -6.926632 -2.613577 15.046258 -4.724999 -6.045382 -27.312282 1.094039 6.455367 0.000000 0.000000 0.000000 -4.970137 39.126073 8.257488 3.972083 -2.016329 -6.001134 -2.039598 -1.637934 1.119709 0.943651 0.769335 0.073899 0.000000 0.000000 0.000000 -1.848139 -1.453632 1.269815 -9.127453 3.414981 2.542171 5.709884 6.423610 -3.057554 0.000000 0.000000 0.000000 -2.040811 -1.218062 1.417254 0.686976 7.361417 -3.196506 0.686842 3.830460 -1.272109 4.983339 -11.032803 -68.061879 12.058053 -25.250144 4.689787 0.000000 0.000000 0.000000 -1.739648 -1.409623 1.488133 0.253517 0.535650 4.190833 1.745881 1.603033 -2.790740 -0.502459 6.439323 77.393693 11.550466 15.012686 -3.150315 0.000000 0.000000 0.000000 
80.193886 117.685692 191.990173 0.000000 0.000000 0.000000 -4.473767 39.838096 6.658837 -12.474178 8.541969 -12.202597 24.435640 -9.828472 2.674479 11.529035 3.271478 16.215921 -21.124660 1.598716 1.033925 0.000000 0.000000 0.000000 -3.780858 41.194175 6.311042 -24.790129 14.287893 1.787419 37.519943 -4.471115 -3.113749 20.680959 -2.070932 -3.459216 -25.001706 1.754376 3.808172 0.000000 0.000000 0.000000 -3.862306 40.358440 6.591667 4.304076 -2.503673 -5.509962 -2.310599 -2.002328 1.226632 1.229340 0.779149 -0.040940 0.000000 0.000000 0.000000 -1.855640 -1.788123 1.397616 -9.107452 3.411262 3.266003 5.635964 6.817396 -3.521857 0.000000 0.000000 0.000000 -2.055270 -1.639919 1.569307 0.538696 6.194842 -2.868305 0.749398 4.136894 -1.305365 3.508283 -12.848154 -68.022189 12.104643 -25.352969 4.886415 0.000000 0.000000 0.000000 -1.871557 -1.811257 1.605958 0.019080 -0.533628 5.038149 2.078937 2.171188 -2.728260 0.017213 5.201372 76.559563 11.402699 15.020684 -3.325209 0.000000 0.000000 0.000000 
83.551208 119.151947 194.732956 0.000000 0.000000 0.000000 -3.995992 42.577716 5.628907 -8.200220 9.304403 -11.196356 20.633861 -12.460928 2.205971 10.369078 1.807492 16.692241 -22.330349 1.660660 0.732129 0.000000 0.000000 0.000000 -2.769371 43.241719 4.925617 -29.815535 12.643774 1.490270 30.013251 -1.491477 -3.292411 27.609180 1.378571 0.102331 -26.360403 1.936260 1.049243 0.000000 0.000000 0.000000 -3.078960 42.143923 5.475854 4.591225 -2.955346 -5.496567 -2.483110 -2.346309 1.408806 1.198962 0.704929 -0.062918 0.000000 0.000000 0.000000 -1.920335 -2.098579 1.581708 -9.139873 3.275652 4.295952 5.421204 7.248423 -3.898584 0.000000 0.000000 0.000000 -2.122752 -2.021685 1.736221 0.424726 5.108269 -2.438573 0.746380 4.229379 -1.325208 2.151175 -14.402682 -68.068333 12.069556 -25.565214 5.060549 0.000000 0.000000 0.000000 -1.995772 -2.183220 1.748890 -0.188236 -1.471527 5.952890 2.511288 2.749880 -2.648958 0.842932 4.191737 75.613671 11.340560 15.234305 -3.565785 0.000000 0.000000 0.000000 
86.960587 120.169067 197.455551 0.000000 0.000000 0.000000 -3.455223 46.054432 5.061011 -4.742258 11.118006 -10.502883 17.562841 -15.747860 1.437322 11.002103 -0.781125 18.187177 -22.362487 1.454656 0.753904 0.000000 0.000000 0.000000 -1.913123 46.626225 4.162690 -32.593659 10.243594 0.587394 23.314096 0.985655 -3.017149 32.593608 4.354178 2.179401 -27.185637 1.845462 -1.138234 0.000000 0.000000 0.000000 -2.813029 44.745341 5.121138 4.851635 -3.460374 -6.114249 -2.496260 -2.666998 1.700206 1.055312 0.713673 -0.137038 0.000000 0.000000 0.000000 -2.050957 -2.356959 1.845669 -9.372631 2.917801 5.470120 5.149639 7.592764 -4.080567 0.000000 0.000000 0.000000 -2.190332 -2.316424 1.973873 0.338592 4.137799 -1.798831 0.791566 4.125394 -1.357912 0.939123 -15.581915 -68.172897 11.946867 -26.107213 5.220256 0.000000 0.000000 0.000000 -2.097941 -2.490925 1.968641 -0.385204 -2.240443 6.929643 3.105233 3.316378 -2.586273 1.743690 3.457515 74.643121 11.368998 15.503303 -3.833643 0.000000 0.000000 0.000000 
90.274017 120.508850 200.674591 0.000000 0.000000 0.000000 -2.615865 49.205113 4.744691 -1.486429 13.299773 -10.365555 15.628542 -18.996079 0.824472 11.805158 -3.545045 20.979177 -20.604852 1.130133 0.869994 0.000000 0.000000 0.000000 -1.105038 51.055647 4.065936 -33.862746 7.542821 -0.688996 18.399018 2.349535 -2.401724 34.761770 5.546702 1.952911 -25.660510 1.511009 -2.378917 0.000000 0.000000 0.000000 -2.999638 47.864934 5.431059 5.055526 -3.973508 -7.322858 -2.318692 -2.929108 2.079196 0.764258 0.901316 -0.190982 0.000000 0.000000 0.000000 -2.164050 -2.533257 2.193948 -9.870043 2.347682 6.656761 4.924130 7.737926 -3.982606 0.000000 0.000000 0.000000 -2.240342 -2.495591 2.306943 0.267650 3.306299 -0.946043 0.811958 3.815537 -1.362729 -0.182665 -16.279201 -68.358534 11.732242 -26.947130 5.353727 0.000000 0.000000 0.000000 -2.141640 -2.685059 2.279642 -0.582132 -2.821306 7.932606 3.690817 3.650422 -2.465030 2.425526 2.955468 73.752656 11.449899 15.556169 -4.082242 0.000000 0.000000 0.000000 
93.361275 120.054726 204.088806 0.000000 0.000000 0.000000 -2.055072 51.837833 4.950180 1.575031 14.796030 -10.497495 15.286542 -22.354215 0.852746 12.057010 -5.942353 22.774578 -18.135817 0.920670 0.967972 0.000000 0.000000 0.000000 -0.524159 55.173271 4.390683 -34.404062 5.120361 -1.661698 15.498379 2.709601 -1.837045 34.748260 4.883431 -0.099711 -22.241695 1.136639 -2.752521 0.000000 0.000000 0.000000 -3.968987 50.970929 6.382235 5.177174 -4.438148 -8.835861 -1.994220 -3.076039 2.517412 0.467083 1.122387 -0.290714 0.000000 0.000000 0.000000 -2.165522 -2.609601 2.581027 -10.460984 1.646654 7.657257 4.883161 7.577973 -3.612515 0.000000 0.000000 0.000000 -2.241723 -2.546325 2.687584 0.195779 2.699415 0.024468 0.863496 3.374077 -1.403308 -1.153963 -16.510608 -68.643613 11.514639 -27.993344 5.467206 0.000000 0.000000 0.000000 -2.086653 -2.746073 2.648308 -0.777624 -3.196643 8.901626 4.065348 3.628881 -2.333666 2.712893 2.640601 73.015556 11.521332 15.097093 -4.262962 0.000000 0.000000 0.000000 
